<?xml version="1.0" encoding="utf-8"?>
<!-- Generator: Adobe Adobe Illustrator 24.2.0, SVG Export Plug-In . SVG Version: 6.00 Build 0)  -->
<svg version="1.1" xmlns="http://www.w3.org/2000/svg" xmlns:xlink="http://www.w3.org/1999/xlink" x="0px" y="0px" width="1096px"
	 height="330px" viewBox="0 0 1096 330" style="enable-background:new 0 0 1096 330;" xml:space="preserve">
<style type="text/css">
	.st0{fill:#381393;}
	.st1{fill:#391293;}
	.st2{fill:#A1A1A1;}
	.st3{fill:none;}
	.st4{fill:#381493;}
	.st5{fill:#4050A8;}
	.st6{opacity:0.7294;fill:#3A44A4;}
	.st7{opacity:0.5412;fill:#3A44A4;}
	.st8{display:none;}
	.st9{display:inline;fill:#3D108F;}
	.st10{font-family:'Montserrat-Regular';}
	.st11{font-size:43.3276px;}
	.st12{letter-spacing:21;}
	.st13{letter-spacing:4;}
	.st14{letter-spacing:4.17;}
	.st15{display:none;fill:none;stroke:#3D108F;stroke-miterlimit:10;}
	.st16{fill:#3D108F;}
</style>
<g id="Layer_13">
	<path class="st0" d="M127.21,46.8l3.03-8.92l67.63,245.02c0,0-3.43-1.24-5.62-2.01c-0.84-0.3-1.48-1.01-1.74-1.92L127.14,49.27
		C126.91,48.46,126.94,47.6,127.21,46.8z"/>
	<path class="st0" d="M95.94,218.04c0,0-0.69,2.19-1.38,4.38c-0.34,1.09,0.19,1.4,0.83,1.61l66.49,23.96c0,0-2.04-5.1-2.81-6.71
		c-0.12-0.24-0.2-0.41-0.25-0.46C158.46,240.4,95.94,218.04,95.94,218.04z"/>
	<g>
		<path class="st1" d="M115.18,201.63c-1.01,3.13-3.87,4.29-7.38,3.01l-1.82-0.67l-1.07,3.33l-4.25-1.55l4.35-13.54l6.06,2.22
			C114.59,195.71,116.19,198.5,115.18,201.63z M110.9,200.07c0.32-0.99-0.05-1.79-1.22-2.22l-1.55-0.57l-1.02,3.17l1.55,0.57
			C109.83,201.45,110.58,201.05,110.9,200.07z"/>
		<path class="st1" d="M128.77,213.39l-4.78-1.75l-1.6,2.05l-4.32-1.58l9.86-11.52l4.17,1.53l1.15,15.55l-4.39-1.61L128.77,213.39z
			 M128.66,209.68l-0.13-3.85l-2.32,2.96L128.66,209.68z"/>
		<path class="st1" d="M141,212.94c1.34-4.16,5.24-5.99,9.29-4.51c2.46,0.9,4.09,2.58,4.78,4.77l-3.51,1.59
			c-0.41-1.28-1.11-2.18-2.24-2.59c-1.76-0.65-3.37,0.23-4.04,2.3c-0.67,2.07,0.1,3.82,1.86,4.46c1.13,0.41,2.2,0.16,3.26-0.58
			l1.85,3.55c-1.8,1.29-4.05,1.54-6.52,0.64C141.69,221.1,139.66,217.1,141,212.94z"/>
	</g>
	<g>
		<path class="st0" d="M68.04,227.98L120.6,65.61c0.03-0.09,0.15-0.09,0.18,0l11.33,39.4c0.01,0.02,0.01,0.04,0,0.06l-2.35,6.87
			c-0.12,0.35-0.72,0.45-0.85,0c-1.6-5.54-7.2-24.97-7.96-27.61c-0.03-0.09-0.15-0.09-0.18,0c0,0-47.9,147.12-47.95,147.1
			l-4.23-1.44C67.95,229.66,67.81,228.7,68.04,227.98z"/>
		<path class="st2" d="M72.81,231.43l48.06-147.08l2.72,9.6c0,0-40.56,125.97-45,138.17c-0.2,0.55-0.88,1.17-1.46,0.86L72.81,231.43
			z"/>
		<path class="st2" d="M132.16,104.9c0.14-0.37,1-2.8,1.69-4.78c0.61-1.75,0.61-3.38,0.16-5.03c-2.13-7.68-8.54-31.09-10-36.01
			c-0.12-0.41-0.89-0.43-1.04-0.04c-0.83,2.09-2.24,6.38-2.24,6.38l0.03,0.1l11.37,39.36C132.15,104.9,132.15,104.9,132.16,104.9z"
			/>
	</g>
	<path class="st2" d="M130.21,38.12c-0.13-0.47,0.3-0.9,0.73-0.73l3.97,1.58c0.95,0.37,1.77,1.36,2.06,2.4l67.27,240.86
		c0.19,1.3-1.33,2.5-2.39,2.02l-3.95-1.37C197.74,282.8,135.1,55.76,130.21,38.12z"/>
	<path class="st2" d="M95.94,218.04c-0.01,0,0.95-2.9,1.48-4.53c0.2-0.6,0.8-0.91,1.36-0.71c6.81,2.5,47.8,17.57,59.92,22.03
		c2.11,0.78,3.72,2.62,4.31,4.93c0.77,3.03,1.79,7.02,2.12,8.24c0.13,0.48-0.3,1.07-0.81,0.87l-3.24-1.15l-1.17-3.93
		c-0.93-2.7-2.47-3.41-4.72-4.22c-8.57-3.07-27.7-10-27.7-10L95.94,218.04z"/>
	<g>
		<g>
			<path class="st0" d="M147.38,192.33l-17.09-62.88l-0.8-0.3l-0.37-0.12c-0.07-0.01-0.47-0.11-0.5-0.11c-0.3-0.02-0.41-0.03-0.72,0
				c-0.21,0.03-0.45,0.08-0.77,0.17c-0.22,0.06-0.56,0.18-0.73,0.28c-0.15,0.09-0.43,0.25-0.58,0.35l0.61,1.79l-0.61-1.78
				c-1.21,0.8-2.18,1.98-2.77,3.37l-15.46,49.21c-0.23,0.66,0.1,1.37,0.76,1.65l41.46,15.45L147.38,192.33z M135.69,180.8
				c-2.08-0.61-3.41-1.19-5.47-1.84c-1.01-0.32-1.98-0.74-2.98-1.08c-1.01-0.35-4.34-1.54-4.38-1.58c-0.21,0.56,0.99-3.32,1.5-4.95
				c0.52-1.68,1.23-3.64,1.72-5.33c0.67-2.29,1.13-3.59,1.75-5.89c0.04-0.28,1.88-6.07,1.88-6.07l7.66,27.32
				C137.37,181.37,135.7,180.82,135.69,180.8z"/>
		</g>
	</g>
	<path class="st2" d="M155.24,199.8l-18.3-66.67c-0.13-0.46-0.35-1.24-1.12-1.59c-0.04-0.02-5.53-2.09-5.53-2.09
		c-0.01,0,0.04,0.19,0.14,0.56c1.71,6.57,18.87,69.21,18.9,69.24l4.88,1.79C154.9,201.33,155.47,200.49,155.24,199.8z"/>
	<polygon class="st3" points="127.16,141.26 114.77,181.46 145.96,193.08 	"/>
	<path class="st2" d="M116.79,179.28c-0.36-0.13-0.55-0.55-0.43-0.93c1.3-4.1,7.28-23,7.28-23c0.28-0.89,1.28-2.28,2.48-2.44
		c1.67-0.22,3.6,1.13,3.6,1.13l-6.55,21.72c-0.08,0.25-0.07,0.52,0.3,0.62l13.89,4.91l1.42,5.41c0.12,0.39-0.37,0.39-0.77,0.24
		L116.79,179.28z"/>
	<path class="st4" d="M212.41,276.83L146.55,43.15c-0.11-0.41,0.23-0.79,0.61-0.68l2.88,0.81c1.15,0.32,2.05,1.25,2.39,2.45
		l62.63,223.01c0.51,2.41,0.34,2.06-0.48,4.82l-1.17,3.27C213.14,277.24,212.54,277.31,212.41,276.83z"/>
	<path class="st5" d="M217.4,266.43L154.98,46.31c-0.1-0.36,0.21-0.71,0.55-0.61l1.76,0.49c1,0.28,1.94,0.8,2.68,1.58
		c0.14,0.15,0.29,0.37,0.41,0.57c0.16,0.27,0.29,0.57,0.38,0.88l59.55,209.95c0.67,2.38-0.99,4.95-1.78,7.3
		C218.33,267.04,217.56,267.02,217.4,266.43z"/>
	<path class="st6" d="M222.36,254.73L163.8,49.6c-0.11-0.39,0.22-0.75,0.58-0.65l1.55,0.43c0.94,0.26,1.82,0.75,2.52,1.47
		c0.06,0.06,0.12,0.14,0.18,0.22c0.28,0.38,0.47,0.82,0.61,1.29l55.39,196.07c0.62,2.16-0.36,4.11-1.1,6.33
		C223.32,255.36,222.53,255.34,222.36,254.73z"/>
	<path class="st7" d="M226.65,244.45L172.38,52.75c-0.1-0.36,0.2-0.7,0.54-0.61l1.44,0.4c0.87,0.24,1.69,0.7,2.33,1.38
		c0.05,0.06,0.11,0.13,0.17,0.2c0.26,0.36,0.44,0.77,0.56,1.2l51.34,183.22c0.57,2.02-0.33,3.84-1.02,5.92
		C227.55,245.03,226.81,245.01,226.65,244.45z"/>
</g>
<g id="Layer_11">
	<g class="st8">
		<text transform="matrix(1 0 0 1.22 269.1125 139.9476)" class="st9 st10 st11 st12">							</text>
		<text transform="matrix(1 0 0 1.22 498.2414 139.9476)" class="st9 st10 st11 st13"> </text>
		<text transform="matrix(1.44 0 0 1.22 513.8391 139.9476)" class="st9 st10 st11 st14">A-PAC</text>
		<text transform="matrix(1 0 0 1.22 269.1125 191.9408)" class="st9 st10 st11">Automation Engineering Services</text>
	</g>
	<path class="st15" d="M254.97,160.9c6.04,2.91,743.97,8.2,743.97,8.2"/>
	<g>
		<path class="st16" d="M548.34,130.06h-24.33l-5.24,9.88h-4.8l19.97-37h4.55l19.97,37h-4.87L548.34,130.06z M546.66,126.89
			l-10.48-19.87l-10.48,19.87H546.66z"/>
		<path class="st16" d="M567.5,123.98h16.35v3.28H567.5V123.98z"/>
		<path class="st16" d="M635,115.63c0,7.88-6.74,12.63-17.84,12.63h-11.73v11.68h-4.62v-37h16.35
			C628.27,102.95,635,107.71,635,115.63z M630.39,115.63c0-5.92-4.62-9.3-13.35-9.3h-11.6v18.5h11.6
			C625.77,124.83,630.39,121.45,630.39,115.63z"/>
		<path class="st16" d="M676.31,130.06h-24.33l-5.24,9.88h-4.8l19.97-37h4.55l19.97,37h-4.87L676.31,130.06z M674.62,126.89
			l-10.48-19.87l-10.48,19.87H674.62z"/>
		<path class="st16" d="M695.27,121.45c0-10.84,9.73-18.82,22.9-18.82c6.36,0,12.1,1.8,15.97,5.39l-2.93,2.48
			c-3.56-3.07-7.92-4.39-12.92-4.39c-10.54,0-18.47,6.55-18.47,15.33c0,8.77,7.92,15.33,18.47,15.33c4.99,0,9.36-1.32,12.92-4.44
			l2.93,2.48c-3.87,3.59-9.61,5.44-16.03,5.44C705.01,140.26,695.27,132.28,695.27,121.45z"/>
		<path class="st16" d="M293.08,182.06h-16.9l-3.64,9.88h-3.34l13.87-37h3.16l13.87,37h-3.38L293.08,182.06z M291.91,178.88
			l-7.28-19.87l-7.28,19.87H291.91z"/>
		<path class="st16" d="M324.58,164.14v27.8h-2.95v-5.07c-1.6,3.38-4.55,5.34-8.19,5.34c-5.81,0-9.62-3.96-9.62-11.95v-16.12h3.08
			v15.75c0,5.92,2.51,8.93,6.85,8.93c4.77,0,7.76-3.75,7.76-10.1v-14.59H324.58z"/>
		<path class="st16" d="M345.2,190.25c-1.21,1.32-3.03,1.96-4.81,1.96c-4.29,0-6.67-2.96-6.67-8.09v-16.81h-4.07v-3.17h4.07v-6.08
			h3.08v6.08h6.93v3.17h-6.93v16.6c0,3.28,1.39,5.07,3.94,5.07c1.26,0,2.51-0.48,3.38-1.43L345.2,190.25z"/>
		<path class="st16" d="M347.67,178.04c0-8.25,4.94-14.11,11.61-14.11s11.57,5.87,11.57,14.11s-4.9,14.17-11.57,14.17
			S347.67,186.28,347.67,178.04z M367.73,178.04c0-6.5-3.6-10.84-8.45-10.84s-8.49,4.33-8.49,10.84c0,6.5,3.64,10.84,8.49,10.84
			S367.73,184.54,367.73,178.04z"/>
		<path class="st16" d="M414.74,175.82v16.12h-3.08v-15.75c0-5.87-2.43-8.88-6.54-8.88c-4.68,0-7.63,3.7-7.63,10.04v14.59h-3.08
			v-15.75c0-5.87-2.43-8.88-6.59-8.88c-4.64,0-7.63,3.7-7.63,10.04v14.59h-3.08v-27.8h2.95v5.07c1.6-3.33,4.55-5.29,8.36-5.29
			c3.77,0,6.72,1.96,8.1,5.87c1.65-3.59,4.9-5.87,9.01-5.87C411.1,163.93,414.74,167.84,414.74,175.82z"/>
		<path class="st16" d="M440.3,174.71v17.23h-2.95v-4.33c-1.39,2.85-4.07,4.6-7.84,4.6c-5.16,0-8.32-3.28-8.32-8.09
			c0-4.28,2.25-7.88,8.8-7.88h7.24v-1.69c0-4.76-2.21-7.35-6.46-7.35c-2.95,0-5.72,1.27-7.58,3.28l-1.39-2.8
			c2.3-2.38,5.68-3.75,9.27-3.75C436.97,163.93,440.3,167.52,440.3,174.71z M437.22,183.59v-4.55h-7.15c-4.42,0-5.85,2.11-5.85,4.97
			c0,3.22,2.12,5.23,5.76,5.23C433.46,189.24,436.01,187.24,437.22,183.59z"/>
		<path class="st16" d="M460.67,190.25c-1.21,1.32-3.03,1.96-4.81,1.96c-4.29,0-6.67-2.96-6.67-8.09v-16.81h-4.07v-3.17h4.07v-6.08
			h3.08v6.08h6.93v3.17h-6.93v16.6c0,3.28,1.39,5.07,3.94,5.07c1.26,0,2.51-0.48,3.38-1.43L460.67,190.25z"/>
		<path class="st16" d="M465.56,155.36c0-1.43,1-2.64,2.25-2.64c1.26,0,2.25,1.16,2.25,2.59c0,1.53-0.95,2.75-2.25,2.75
			C466.56,158.06,465.56,156.84,465.56,155.36z M466.25,164.14h3.08v27.8h-3.08V164.14z"/>
		<path class="st16" d="M475.61,178.04c0-8.25,4.94-14.11,11.61-14.11s11.57,5.87,11.57,14.11s-4.9,14.17-11.57,14.17
			S475.61,186.28,475.61,178.04z M495.67,178.04c0-6.5-3.6-10.84-8.45-10.84s-8.49,4.33-8.49,10.84c0,6.5,3.64,10.84,8.49,10.84
			S495.67,184.54,495.67,178.04z"/>
		<path class="st16" d="M526.05,175.82v16.12h-3.08v-15.75c0-5.87-2.51-8.88-6.85-8.88c-4.9,0-7.97,3.7-7.97,10.04v14.59h-3.08
			v-27.8h2.95v5.13c1.65-3.38,4.72-5.34,8.67-5.34C522.23,163.93,526.05,167.84,526.05,175.82z"/>
		<path class="st16" d="M567.86,188.56v3.38h-21.45v-37h20.8v3.38h-17.59v13.16h15.69v3.33h-15.69v13.74H567.86z"/>
		<path class="st16" d="M595.72,175.82v16.12h-3.08v-15.75c0-5.87-2.51-8.88-6.85-8.88c-4.9,0-7.97,3.7-7.97,10.04v14.59h-3.08
			v-27.8h2.95v5.13c1.65-3.38,4.72-5.34,8.67-5.34C591.9,163.93,595.72,167.84,595.72,175.82z"/>
		<path class="st16" d="M625.27,164.14v24.42c0,9.57-3.86,13.9-11.4,13.9c-4.16,0-8.23-1.53-10.62-4.28l1.56-2.85
			c2.17,2.38,5.46,3.81,8.97,3.81c5.76,0,8.41-3.22,8.41-10.1v-3.54c-1.91,3.54-5.16,5.39-8.88,5.39c-6.5,0-11.44-5.55-11.44-13.53
			s4.94-13.43,11.44-13.43c3.81,0,7.11,1.9,9.01,5.55v-5.34H625.27z M622.28,177.35c0-6.03-3.64-10.15-8.67-10.15
			c-5.03,0-8.62,4.12-8.62,10.15s3.6,10.2,8.62,10.2C618.64,187.55,622.28,183.38,622.28,177.35z"/>
		<path class="st16" d="M633.19,155.36c0-1.43,1-2.64,2.25-2.64c1.26,0,2.25,1.16,2.25,2.59c0,1.53-0.95,2.75-2.25,2.75
			C634.19,158.06,633.19,156.84,633.19,155.36z M633.88,164.14h3.08v27.8h-3.08V164.14z"/>
		<path class="st16" d="M666.51,175.82v16.12h-3.08v-15.75c0-5.87-2.51-8.88-6.85-8.88c-4.9,0-7.97,3.7-7.97,10.04v14.59h-3.08
			v-27.8h2.95v5.13c1.65-3.38,4.72-5.34,8.67-5.34C662.7,163.93,666.51,167.84,666.51,175.82z"/>
		<path class="st16" d="M694.8,179.2h-19.07c0.35,5.81,3.99,9.67,8.97,9.67c2.77,0,5.24-1.22,6.98-3.65l1.73,2.43
			c-2.04,2.96-5.2,4.55-8.8,4.55c-7.11,0-11.96-5.92-11.96-14.17s4.72-14.11,11.14-14.11s11.05,5.76,11.05,14.11
			C694.85,178.36,694.8,178.78,694.8,179.2z M675.74,176.4h16.16c-0.39-5.44-3.64-9.25-8.1-9.25
			C679.38,167.15,676.13,170.96,675.74,176.4z"/>
		<path class="st16" d="M720.97,179.2h-19.07c0.35,5.81,3.99,9.67,8.97,9.67c2.77,0,5.24-1.22,6.98-3.65l1.73,2.43
			c-2.04,2.96-5.2,4.55-8.8,4.55c-7.11,0-11.96-5.92-11.96-14.17s4.72-14.11,11.14-14.11c6.41,0,11.05,5.76,11.05,14.11
			C721.02,178.36,720.97,178.78,720.97,179.2z M701.91,176.4h16.16c-0.39-5.44-3.64-9.25-8.1-9.25
			C705.55,167.15,702.3,170.96,701.91,176.4z"/>
		<path class="st16" d="M738.78,163.93v3.65c-0.26,0-0.52-0.05-0.74-0.05c-4.77,0-7.67,3.7-7.67,10.25v14.17h-3.08v-27.8h2.95v5.44
			C731.67,165.88,734.58,163.93,738.78,163.93z"/>
		<path class="st16" d="M743.63,155.36c0-1.43,1-2.64,2.25-2.64s2.25,1.16,2.25,2.59c0,1.53-0.95,2.75-2.25,2.75
			C744.63,158.06,743.63,156.84,743.63,155.36z M744.32,164.14h3.08v27.8h-3.08V164.14z"/>
		<path class="st16" d="M776.95,175.82v16.12h-3.08v-15.75c0-5.87-2.51-8.88-6.85-8.88c-4.9,0-7.97,3.7-7.97,10.04v14.59h-3.08
			v-27.8h2.95v5.13c1.65-3.38,4.72-5.34,8.67-5.34C773.14,163.93,776.95,167.84,776.95,175.82z"/>
		<path class="st16" d="M806.5,164.14v24.42c0,9.57-3.86,13.9-11.4,13.9c-4.16,0-8.23-1.53-10.62-4.28l1.56-2.85
			c2.17,2.38,5.46,3.81,8.97,3.81c5.76,0,8.41-3.22,8.41-10.1v-3.54c-1.91,3.54-5.16,5.39-8.88,5.39c-6.5,0-11.44-5.55-11.44-13.53
			s4.94-13.43,11.44-13.43c3.81,0,7.11,1.9,9.01,5.55v-5.34H806.5z M803.51,177.35c0-6.03-3.64-10.15-8.67-10.15
			s-8.62,4.12-8.62,10.15s3.6,10.2,8.62,10.2S803.51,183.38,803.51,177.35z"/>
		<path class="st16" d="M824.22,187.45l1.26-3.01c2.17,2.59,6.02,4.49,10.01,4.49c5.68,0,8.15-2.91,8.15-6.55
			c0-10.15-18.68-3.91-18.68-17.6c0-5.44,3.47-10.15,11.18-10.15c3.42,0,6.98,1.22,9.4,3.28l-1.08,3.12
			c-2.6-2.06-5.63-3.07-8.32-3.07c-5.55,0-8.02,3.01-8.02,6.71c0,10.15,18.68,4.02,18.68,17.5c0,5.44-3.55,10.1-11.31,10.1
			C830.94,192.26,826.47,190.3,824.22,187.45z"/>
		<path class="st16" d="M872.97,179.2H853.9c0.35,5.81,3.99,9.67,8.97,9.67c2.77,0,5.24-1.22,6.98-3.65l1.73,2.43
			c-2.04,2.96-5.2,4.55-8.8,4.55c-7.11,0-11.96-5.92-11.96-14.17s4.72-14.11,11.14-14.11s11.05,5.76,11.05,14.11
			C873.01,178.36,872.97,178.78,872.97,179.2z M853.9,176.4h16.16c-0.39-5.44-3.64-9.25-8.1-9.25
			C857.54,167.15,854.29,170.96,853.9,176.4z"/>
		<path class="st16" d="M890.77,163.93v3.65c-0.26,0-0.52-0.05-0.74-0.05c-4.77,0-7.67,3.7-7.67,10.25v14.17h-3.08v-27.8h2.95v5.44
			C883.66,165.88,886.57,163.93,890.77,163.93z"/>
		<path class="st16" d="M916.47,164.14l-10.14,27.8h-3.16l-10.1-27.8h3.21l8.54,23.68l8.62-23.68H916.47z"/>
		<path class="st16" d="M920.1,155.36c0-1.43,1-2.64,2.25-2.64c1.26,0,2.25,1.16,2.25,2.59c0,1.53-0.95,2.75-2.25,2.75
			C921.1,158.06,920.1,156.84,920.1,155.36z M920.79,164.14h3.08v27.8h-3.08V164.14z"/>
		<path class="st16" d="M930.15,178.04c0-8.3,4.94-14.11,11.74-14.11c3.86,0,7.11,1.85,8.93,5.5l-2.3,1.9
			c-1.56-2.8-3.99-4.12-6.63-4.12c-4.98,0-8.62,4.33-8.62,10.84c0,6.55,3.64,10.84,8.62,10.84c2.64,0,5.07-1.27,6.63-4.07l2.3,1.9
			c-1.82,3.59-5.07,5.5-8.93,5.5C935.09,192.2,930.15,186.34,930.15,178.04z"/>
		<path class="st16" d="M976.3,179.2h-19.07c0.35,5.81,3.99,9.67,8.97,9.67c2.77,0,5.24-1.22,6.98-3.65l1.73,2.43
			c-2.04,2.96-5.2,4.55-8.8,4.55c-7.11,0-11.96-5.92-11.96-14.17s4.72-14.11,11.14-14.11c6.41,0,11.05,5.76,11.05,14.11
			C976.34,178.36,976.3,178.78,976.3,179.2z M957.23,176.4h16.16c-0.39-5.44-3.64-9.25-8.1-9.25
			C960.87,167.15,957.62,170.96,957.23,176.4z"/>
		<path class="st16" d="M979.46,188.77l1.39-2.96c1.82,1.74,4.9,3.12,8.1,3.12c4.33,0,6.11-1.8,6.11-4.55
			c0-7.24-14.78-1.53-14.78-12.53c0-4.55,3.21-7.93,9.01-7.93c2.95,0,6.15,1,8.06,2.59l-1.34,3.01c-1.99-1.69-4.38-2.38-6.72-2.38
			c-4.12,0-5.94,1.96-5.94,4.6c0,7.51,14.78,1.85,14.78,12.53c0,4.81-3.47,7.93-9.4,7.93C984.96,192.2,981.32,190.72,979.46,188.77z
			"/>
	</g>
</g>
</svg>
